<svg width="512" height="512" viewBox="0 0 500 500" fill="none" xmlns="http://www.w3.org/2000/svg">
  <defs>
    <linearGradient id="logoGradient" x1="0%" y1="0%" x2="100%" y2="100%">
      <stop offset="0%" stopColor="#bef264" />
      <stop offset="100%" stopColor="#65a30d" />
    </linearGradient>
  </defs>
  <path d="M250 480C250 480 430 340 430 200C430 100.589 349.411 20 250 20C150.589 20 70 100.589 70 200C70 340 250 480 250 480Z" fill="url(#logoGradient)" />
  <path d="M250 450L300 350H200L250 450Z" fill="white" />
  <rect x="245" y="360" width="10" height="40" fill="#bef264" opacity="0.8" />
  <rect x="245" y="410" width="10" height="30" fill="#bef264" opacity="0.8" />
  <g transform="translate(140, 120) scale(1.1)">
    <path d="M20 20C20 9 29 0 40 0H160C171 0 180 9 180 20V140C180 151 171 160 160 160H40C29 160 20 151 20 140V20Z" fill="#0f172a" />
    <path d="M35 15C35 10 40 5 45 5H155C160 5 165 10 165 15V80H35V15Z" fill="#334155" />
    <circle cx="50" cy="130" r="12" fill="white" />
    <circle cx="150" cy="130" r="12" fill="white" />
    <path d="M90 140H110L100 155L90 140Z" fill="#84cc16" />
    <rect x="0" y="40" width="15" height="40" rx="5" fill="#0f172a" />
    <rect x="185" y="40" width="15" height="40" rx="5" fill="#0f172a" />
  </g>
</svg>